<svg xmlns="http://www.w3.org/2000/svg" version="1.1" xmlns:xlink="http://www.w3.org/1999/xlink" xmlns:svgjs="http://svgjs.dev/svgjs" width="128" height="128" viewBox="0 0 128 128"><g transform="matrix(0.8046875,0,0,0.8046875,12.221578124999994,12.221062383618431)"><svg viewBox="0 0 96 96" data-background-color="#89939e" preserveAspectRatio="xMidYMid meet" height="128" width="128" xmlns="http://www.w3.org/2000/svg" xmlns:xlink="http://www.w3.org/1999/xlink"><g id="tight-bounds" transform="matrix(1,0,0,1,0.25950000000000273,0.2599806909964144)"><svg viewBox="0 0 95.481 95.48003861800719" height="95.48003861800719" width="95.481"><g><svg viewBox="0 0 95.481 95.48003861800719" height="95.48003861800719" width="95.481"><g><svg viewBox="0 0 95.481 95.48003861800719" height="95.48003861800719" width="95.481"><g id="textblocktransform"><svg viewBox="0 0 95.481 95.48003861800719" height="95.48003861800719" width="95.481" id="textblock"><g><svg viewBox="0 0 95.481 95.48003861800719" height="95.48003861800719" width="95.481"><g><svg viewBox="0 0 95.481 95.48003861800719" height="95.48003861800719" width="95.481"><g><svg xmlns:dc="http://purl.org/dc/elements/1.1/" xmlns:cc="http://creativecommons.org/ns#" xmlns:rdf="http://www.w3.org/1999/02/22-rdf-syntax-ns#" xmlns:svg="http://www.w3.org/2000/svg" xmlns="http://www.w3.org/2000/svg" xmlns:sodipodi="http://sodipodi.sourceforge.net/DTD/sodipodi-0.dtd" xmlns:inkscape="http://www.inkscape.org/namespaces/inkscape" version="1.1" viewBox="3.475 1.182 99.30300000000001 99.30200013493753" xml:space="preserve" x="0" y="0" height="95.48003861800719" width="95.481" class="icon-icon-0" data-fill-palette-color="accent" id="icon-0"><path d="M81.263 1.182H24.273C8.997 1.182 3.475 6.494 3.475 22.362V79.554C3.476 94.927 8.998 100.484 24.272 100.484H81.263C96.666 100.485 102.778 94.928 102.778 79.555V22.362C102.778 6.494 96.866 1.182 81.263 1.182M61.226 29.796H68.22L45.688 71.87H37.596M70.12 36.538L70.129 29.843 92.499 47.478C92.467 49.56 92.531 51.96 92.5 54.042L70.13 71.676 70.147 64.921 88.508 50.79zM17.746 50.789L36.107 64.921 36.125 71.676 13.755 54.042C13.723 51.96 13.787 49.56 13.755 47.478L36.125 29.843 36.135 36.538z" fill="#ffffff" stroke="none" fill-opacity="1" data-fill-palette-color="accent"></path></svg></g></svg></g></svg></g></svg></g></svg></g></svg></g><defs></defs></svg><rect width="95.481" height="95.48003861800719" fill="none" stroke="none" visibility="hidden"></rect></g></svg></g></svg>