<svg xmlns="http://www.w3.org/2000/svg" version="1.1" xmlns:xlink="http://www.w3.org/1999/xlink" xmlns:svgjs="http://svgjs.dev/svgjs" width="2000" height="969" viewBox="0 0 2000 969"><g transform="matrix(1,0,0,1,-1.2121212121212466,-1.161697993940436)"><svg viewBox="0 0 396 192" data-background-color="#89939e" preserveAspectRatio="xMidYMid meet" height="969" width="2000" xmlns="http://www.w3.org/2000/svg" xmlns:xlink="http://www.w3.org/1999/xlink"><g id="tight-bounds" transform="matrix(1,0,0,1,0.2400000000000091,0.23018164585816692)"><svg viewBox="0 0 395.52 191.53963670828367" height="191.53963670828367" width="395.52"><g><svg viewBox="0 0 415.0551883998733 200.99999999999994" height="191.53963670828367" width="395.52"><g><rect width="5.669500777207977" height="200.99999999999994" x="134.84162507122505" y="0" fill="#000000" opacity="1" stroke-width="0" stroke="transparent" fill-opacity="1" class="rect-yte-0" data-fill-palette-color="primary" rx="1%" id="yte-0" data-palette-color="#ffffff"></rect></g><g transform="matrix(1,0,0,1,155.35275091965812,0.4999999999999858)"><svg viewBox="0 0 259.7024374802152 199.99999999999997" height="199.99999999999997" width="259.7024374802152"><g id="textblocktransform"><svg viewBox="0 0 259.7024374802152 199.99999999999997" height="199.99999999999997" width="259.7024374802152" id="textblock"><g><svg viewBox="0 0 259.7024374802152 199.99999999999997" height="199.99999999999997" width="259.7024374802152"><g transform="matrix(1,0,0,1,0,0)"><svg width="259.7024374802152" viewBox="0.4999999999999991 -38.05 209.1 154.95" height="199.99999999999997" data-palette-color="#ffffff"><svg></svg><svg></svg><svg></svg><g class="wordmark-text-0" data-fill-palette-color="primary" id="text-0"><path d="M9.25 0h-4.75v-35h20.75v4.1h-16v10.7h13.35v3.9h-13.35zM38.2 0.6v0c-2.167 0-4.133-0.55-5.9-1.65-1.767-1.1-3.177-2.66-4.23-4.68-1.047-2.013-1.57-4.387-1.57-7.12v0c0-2.6 0.523-4.933 1.57-7 1.053-2.067 2.503-3.71 4.35-4.93 1.853-1.213 3.98-1.82 6.38-1.82v0c1.5 0 2.86 0.257 4.08 0.77 1.213 0.52 2.27 1.163 3.17 1.93v0-2.1h4.1v19.7c0 1.267 0.31 2.09 0.93 2.47 0.613 0.387 1.287 0.58 2.02 0.58v0l-0.95 3.5c-3.2 0-5.133-1.3-5.8-3.9v0c-0.767 1.067-1.807 2.04-3.12 2.92-1.32 0.887-2.997 1.33-5.03 1.33zM39.2-3.4v0c1.267 0 2.467-0.31 3.6-0.93 1.133-0.613 2.083-1.387 2.85-2.32v0-13.95c-0.9-0.633-1.893-1.143-2.98-1.53-1.08-0.38-2.22-0.57-3.42-0.57v0c-1.6 0-3.01 0.407-4.23 1.22-1.213 0.82-2.17 1.957-2.87 3.41-0.7 1.447-1.05 3.137-1.05 5.07v0c0 1.867 0.35 3.523 1.05 4.97 0.7 1.453 1.667 2.587 2.9 3.4 1.233 0.82 2.617 1.23 4.15 1.23zM45.45-33.85l-10 5.1-1.55-3.05 9.45-6.25zM70.8 0.6v0c-1.5 0-2.907-0.277-4.22-0.83-1.32-0.547-2.413-1.187-3.28-1.92v0 2.15h-4.2v-37h4.5v13.7c0.667-0.767 1.643-1.51 2.93-2.23 1.28-0.713 2.803-1.07 4.57-1.07v0c2 0 3.873 0.523 5.62 1.57 1.753 1.053 3.163 2.57 4.23 4.55 1.067 1.987 1.6 4.397 1.6 7.23v0c0 2.067-0.333 3.95-1 5.65-0.667 1.7-1.557 3.157-2.67 4.37-1.12 1.22-2.38 2.163-3.78 2.83-1.4 0.667-2.833 1-4.3 1zM69.6-3.4v0c1.633 0 3.073-0.4 4.32-1.2 1.253-0.8 2.24-1.933 2.96-3.4 0.713-1.467 1.07-3.167 1.07-5.1v0c0-2-0.357-3.717-1.07-5.15-0.72-1.433-1.67-2.533-2.85-3.3-1.187-0.767-2.497-1.15-3.93-1.15v0c-1.433 0-2.727 0.357-3.88 1.07-1.147 0.72-2.02 1.497-2.62 2.33v0 13.9c0.767 0.6 1.667 1.083 2.7 1.45 1.033 0.367 2.133 0.55 3.3 0.55zM93.3 0h-4.5v-26h4.5zM91.05-30.45v0c-0.867 0-1.607-0.317-2.22-0.95-0.62-0.633-0.93-1.367-0.93-2.2v0c0-0.967 0.283-1.733 0.85-2.3 0.567-0.567 1.333-0.85 2.3-0.85v0c0.867 0 1.61 0.307 2.23 0.92 0.613 0.62 0.92 1.363 0.92 2.23v0c0 0.933-0.283 1.69-0.85 2.27-0.567 0.587-1.333 0.88-2.3 0.88zM112.25 0.6v0c-2.467 0-4.683-0.577-6.65-1.73-1.967-1.147-3.507-2.747-4.62-4.8-1.12-2.047-1.68-4.403-1.68-7.07v0c0-2.8 0.567-5.217 1.7-7.25 1.133-2.033 2.683-3.6 4.65-4.7 1.967-1.1 4.167-1.65 6.6-1.65v0c2.433 0 4.627 0.55 6.58 1.65 1.947 1.1 3.497 2.657 4.65 4.67 1.147 2.02 1.72 4.413 1.72 7.18v0c0 2.767-0.567 5.173-1.7 7.22-1.133 2.053-2.673 3.647-4.62 4.78-1.953 1.133-4.163 1.7-6.63 1.7zM112.25-3.4v0c2.633 0 4.683-0.893 6.15-2.68 1.467-1.78 2.2-4.087 2.2-6.92v0c0-1.733-0.367-3.327-1.1-4.78-0.733-1.447-1.723-2.613-2.97-3.5-1.253-0.88-2.68-1.32-4.28-1.32v0c-2.633 0-4.683 0.867-6.15 2.6-1.467 1.733-2.2 4.033-2.2 6.9v0c0 1.733 0.367 3.34 1.1 4.82 0.733 1.487 1.727 2.67 2.98 3.55 1.247 0.887 2.67 1.33 4.27 1.33z" fill="#000000" fill-rule="nonzero" stroke="none" stroke-width="1" stroke-linecap="butt" stroke-linejoin="miter" stroke-miterlimit="10" stroke-dasharray="" stroke-dashoffset="0" font-family="none" font-weight="none" font-size="none" text-anchor="none" style="mix-blend-mode: normal" data-fill-palette-color="primary" opacity="1"></path><path transform="translate(0,52.65)" d="M9.25 0h-4.75v-35h4.75v14.95h17.25v-14.95h4.75v35h-4.75v-15.95h-17.25zM50.15 0.6v0c-3.733 0-6.693-1.193-8.88-3.58-2.18-2.38-3.27-5.72-3.27-10.02v0c0-2.6 0.493-4.927 1.48-6.98 0.98-2.047 2.353-3.663 4.12-4.85 1.767-1.18 3.817-1.77 6.15-1.77v0c2.5 0 4.577 0.54 6.23 1.62 1.647 1.087 2.887 2.547 3.72 4.38 0.833 1.833 1.25 3.85 1.25 6.05v0c0 1.167-0.05 2.3-0.15 3.4v0h-18.2c0.3 2.433 1.15 4.333 2.55 5.7 1.4 1.367 3.25 2.05 5.55 2.05v0c1.5 0 2.85-0.16 4.05-0.48 1.2-0.313 2.35-0.72 3.45-1.22v0l1.05 3.85c-1.2 0.533-2.55 0.977-4.05 1.33-1.5 0.347-3.183 0.52-5.05 0.52zM42.55-14.8v0h14.25c0-2.533-0.633-4.483-1.9-5.85-1.267-1.367-3.017-2.05-5.25-2.05v0c-1.933 0-3.533 0.673-4.8 2.02-1.267 1.353-2.033 3.313-2.3 5.88zM71.45 0h-4.5v-26h4.35v4.35c0.933-1.4 2.127-2.577 3.58-3.53 1.447-0.947 3.17-1.42 5.17-1.42v0c2.933 0 5.127 0.883 6.58 2.65 1.447 1.767 2.17 4.1 2.17 7v0 16.95h-4.5v-16.45c0-1.867-0.44-3.367-1.32-4.5-0.887-1.133-2.113-1.7-3.68-1.7v0c-1.533 0-2.983 0.54-4.35 1.62-1.367 1.087-2.533 2.363-3.5 3.83v0zM101.05 0h-4.5v-26h4.35v5.65c0.433-1.1 1.017-2.127 1.75-3.08 0.733-0.947 1.65-1.713 2.75-2.3 1.1-0.58 2.383-0.87 3.85-0.87v0c0.5 0 1 0.023 1.5 0.07 0.5 0.053 0.917 0.13 1.25 0.23v0l-1.35 4.65c-0.633-0.267-1.383-0.4-2.25-0.4v0c-1.233 0-2.407 0.35-3.52 1.05-1.12 0.7-2.037 1.783-2.75 3.25-0.72 1.467-1.08 3.333-1.08 5.6v0zM121 0h-4.5v-26h4.5zM118.75-30.45v0c-0.867 0-1.607-0.317-2.22-0.95-0.62-0.633-0.93-1.367-0.93-2.2v0c0-0.967 0.283-1.733 0.85-2.3 0.567-0.567 1.333-0.85 2.3-0.85v0c0.867 0 1.61 0.307 2.23 0.92 0.613 0.62 0.92 1.363 0.92 2.23v0c0 0.933-0.283 1.69-0.85 2.27-0.567 0.587-1.333 0.88-2.3 0.88zM150.7 11h-4.5v-13.65c-0.7 0.733-1.673 1.457-2.92 2.17-1.253 0.72-2.713 1.08-4.38 1.08v0c-2 0-3.89-0.517-5.67-1.55-1.787-1.033-3.23-2.56-4.33-4.58-1.1-2.013-1.65-4.47-1.65-7.37v0c0-2.733 0.55-5.127 1.65-7.18 1.1-2.047 2.567-3.647 4.4-4.8 1.833-1.147 3.85-1.72 6.05-1.72v0c1.5 0 2.86 0.257 4.08 0.77 1.213 0.52 2.27 1.163 3.17 1.93v0-2.1h4.1zM139.9-3.4v0c1.333 0 2.55-0.317 3.65-0.95 1.1-0.633 1.983-1.367 2.65-2.2v0-14.05c-0.9-0.633-1.89-1.143-2.97-1.53-1.087-0.38-2.23-0.57-3.43-0.57v0c-1.433 0-2.75 0.383-3.95 1.15-1.2 0.767-2.167 1.867-2.9 3.3-0.733 1.433-1.1 3.167-1.1 5.2v0c0 2 0.377 3.723 1.13 5.17 0.747 1.453 1.737 2.563 2.97 3.33 1.233 0.767 2.55 1.15 3.95 1.15zM167.2 0.6v0c-1.5 0-2.917-0.317-4.25-0.95-1.333-0.633-2.417-1.66-3.25-3.08-0.833-1.413-1.25-3.303-1.25-5.67v0-16.9h4.5v16.3c0 2.033 0.433 3.59 1.3 4.67 0.867 1.087 2.133 1.63 3.8 1.63v0c1.367 0 2.693-0.277 3.98-0.83 1.28-0.547 2.42-1.287 3.42-2.22v0-19.55h4.5v19.25c0 1.433 0.31 2.373 0.93 2.82 0.613 0.453 1.287 0.68 2.02 0.68v0l-0.95 3.5c-3.1 0-5.017-1.233-5.75-3.7v0c-1.167 1.2-2.517 2.173-4.05 2.92-1.533 0.753-3.183 1.13-4.95 1.13zM198.8 0.6v0c-3.733 0-6.69-1.193-8.87-3.58-2.187-2.38-3.28-5.72-3.28-10.02v0c0-2.6 0.493-4.927 1.48-6.98 0.98-2.047 2.353-3.663 4.12-4.85 1.767-1.18 3.817-1.77 6.15-1.77v0c2.5 0 4.577 0.54 6.23 1.62 1.647 1.087 2.887 2.547 3.72 4.38 0.833 1.833 1.25 3.85 1.25 6.05v0c0 1.167-0.05 2.3-0.15 3.4v0h-18.2c0.3 2.433 1.15 4.333 2.55 5.7 1.4 1.367 3.25 2.05 5.55 2.05v0c1.5 0 2.85-0.16 4.05-0.48 1.2-0.313 2.35-0.72 3.45-1.22v0l1.05 3.85c-1.2 0.533-2.55 0.977-4.05 1.33-1.5 0.347-3.183 0.52-5.05 0.52zM191.2-14.8v0h14.25c0-2.533-0.633-4.483-1.9-5.85-1.267-1.367-3.017-2.05-5.25-2.05v0c-1.933 0-3.533 0.673-4.8 2.02-1.267 1.353-2.033 3.313-2.3 5.88z" fill="#000000" fill-rule="nonzero" stroke="none" stroke-width="1" stroke-linecap="butt" stroke-linejoin="miter" stroke-miterlimit="10" stroke-dasharray="" stroke-dashoffset="0" font-family="none" font-weight="none" font-size="none" text-anchor="none" style="mix-blend-mode: normal" data-fill-palette-color="primary" opacity="1"></path><path transform="translate(0,105.3)" d="M32.9-1.25l-4.35 1.75-3.9-10h-16.2l-3.9 9.9-4.05-1.65 13.7-33.75h5.2zM16.55-30.3l-6.6 16.8h13.15zM41.9 0h-4.5v-26h4.35v5.65c0.433-1.1 1.017-2.127 1.75-3.08 0.733-0.947 1.65-1.713 2.75-2.3 1.1-0.58 2.383-0.87 3.85-0.87v0c0.5 0 1 0.023 1.5 0.07 0.5 0.053 0.917 0.13 1.25 0.23v0l-1.35 4.65c-0.633-0.267-1.383-0.4-2.25-0.4v0c-1.233 0-2.407 0.35-3.52 1.05-1.12 0.7-2.037 1.783-2.75 3.25-0.72 1.467-1.08 3.333-1.08 5.6v0zM65.8 0.6v0c-2.167 0-4.133-0.55-5.9-1.65-1.767-1.1-3.173-2.66-4.22-4.68-1.053-2.013-1.58-4.387-1.58-7.12v0c0-2.6 0.527-4.933 1.58-7 1.047-2.067 2.497-3.71 4.35-4.93 1.847-1.213 3.97-1.82 6.37-1.82v0c1.5 0 2.857 0.257 4.07 0.77 1.22 0.52 2.28 1.163 3.18 1.93v0-2.1h4.1v19.7c0 1.267 0.31 2.09 0.93 2.47 0.613 0.387 1.287 0.58 2.02 0.58v0l-0.95 3.5c-3.2 0-5.133-1.3-5.8-3.9v0c-0.767 1.067-1.807 2.04-3.12 2.92-1.32 0.887-2.997 1.33-5.03 1.33zM66.8-3.4v0c1.267 0 2.467-0.31 3.6-0.93 1.133-0.613 2.083-1.387 2.85-2.32v0-13.95c-0.9-0.633-1.89-1.143-2.97-1.53-1.087-0.38-2.23-0.57-3.43-0.57v0c-1.6 0-3.007 0.407-4.22 1.22-1.22 0.82-2.18 1.957-2.88 3.41-0.7 1.447-1.05 3.137-1.05 5.07v0c0 1.867 0.35 3.523 1.05 4.97 0.7 1.453 1.667 2.587 2.9 3.4 1.233 0.82 2.617 1.23 4.15 1.23zM95.2 0.6v0c-1.5 0-2.917-0.317-4.25-0.95-1.333-0.633-2.417-1.66-3.25-3.08-0.833-1.413-1.25-3.303-1.25-5.67v0-16.9h4.5v16.3c0 2.033 0.433 3.59 1.3 4.67 0.867 1.087 2.133 1.63 3.8 1.63v0c1.367 0 2.693-0.277 3.98-0.83 1.28-0.547 2.42-1.287 3.42-2.22v0-19.55h4.5v19.25c0 1.433 0.31 2.373 0.93 2.82 0.613 0.453 1.287 0.68 2.02 0.68v0l-0.95 3.5c-3.1 0-5.017-1.233-5.75-3.7v0c-1.167 1.2-2.517 2.173-4.05 2.92-1.533 0.753-3.183 1.13-4.95 1.13zM103.2-33.85l-10 5.1-1.55-3.05 9.45-6.25zM113.75 11.6v0c-2.033 0-3.733-0.383-5.1-1.15v0l1.1-3.75c0.433 0.267 0.96 0.5 1.58 0.7 0.613 0.2 1.237 0.3 1.87 0.3v0c2.833 0 4.25-1.767 4.25-5.3v0-28.4h4.5v28.85c0 2.033-0.367 3.693-1.1 4.98-0.733 1.28-1.717 2.23-2.95 2.85-1.233 0.613-2.617 0.92-4.15 0.92zM119.6-30.45v0c-0.867 0-1.607-0.317-2.22-0.95-0.62-0.633-0.93-1.367-0.93-2.2v0c0-0.967 0.283-1.733 0.85-2.3 0.567-0.567 1.333-0.85 2.3-0.85v0c0.867 0 1.61 0.307 2.23 0.92 0.613 0.62 0.92 1.363 0.92 2.23v0c0 0.933-0.283 1.69-0.85 2.27-0.567 0.587-1.333 0.88-2.3 0.88zM140.9 0.6v0c-2.467 0-4.683-0.577-6.65-1.73-1.967-1.147-3.507-2.747-4.62-4.8-1.12-2.047-1.68-4.403-1.68-7.07v0c0-2.8 0.567-5.217 1.7-7.25 1.133-2.033 2.683-3.6 4.65-4.7 1.967-1.1 4.167-1.65 6.6-1.65v0c2.433 0 4.623 0.55 6.57 1.65 1.953 1.1 3.507 2.657 4.66 4.67 1.147 2.02 1.72 4.413 1.72 7.18v0c0 2.767-0.567 5.173-1.7 7.22-1.133 2.053-2.673 3.647-4.62 4.78-1.953 1.133-4.163 1.7-6.63 1.7zM140.9-3.4v0c2.633 0 4.683-0.893 6.15-2.68 1.467-1.78 2.2-4.087 2.2-6.92v0c0-1.733-0.367-3.327-1.1-4.78-0.733-1.447-1.723-2.613-2.97-3.5-1.253-0.88-2.68-1.32-4.28-1.32v0c-2.633 0-4.683 0.867-6.15 2.6-1.467 1.733-2.2 4.033-2.2 6.9v0c0 1.733 0.367 3.34 1.1 4.82 0.733 1.487 1.727 2.67 2.98 3.55 1.247 0.887 2.67 1.33 4.27 1.33z" fill="#000000" fill-rule="nonzero" stroke="none" stroke-width="1" stroke-linecap="butt" stroke-linejoin="miter" stroke-miterlimit="10" stroke-dasharray="" stroke-dashoffset="0" font-family="none" font-weight="none" font-size="none" text-anchor="none" style="mix-blend-mode: normal" data-fill-palette-color="primary" opacity="1"></path></g></svg></g></svg></g></svg></g></svg></g><g transform="matrix(1,0,0,1,0,0.4999999999999858)"><svg viewBox="0 0 119.99999999999999 199.99999999999997" height="199.99999999999997" width="119.99999999999999"><g><svg xmlns="http://www.w3.org/2000/svg" xmlns:xlink="http://www.w3.org/1999/xlink" version="1.1" x="0" y="0" viewBox="14 2 36 60" style="enable-background:new 0 0 64 64;" xml:space="preserve" height="199.99999999999997" width="119.99999999999999" class="icon-icon-0" data-fill-palette-color="accent" id="icon-0"><path d="M45 36H42V32H14V57C14 59.8 16.2 62 19 62H37C39.8 62 42 59.8 42 57V54H45C47.8 54 50 51.8 50 49V41C50 38.2 47.8 36 45 36M23.9 54.5L22.2 55.5 17.8 48 22.1 40.5 23.8 41.5 20.2 48zM27 55.3L25 54.7 29 40.7 30.9 41.2zM33.9 55.5L32.2 54.5 35.9 48 32.2 41.5 33.9 40.5 38.2 48zM48 49C48 50.7 46.7 52 45 52H42V38H45C46.7 38 48 39.3 48 41z" fill="#000000" data-fill-palette-color="accent"></path><g fill="#ffffff" data-fill-palette-color="accent"><path d="M38 30H36V28C36 26.9 35.1 26 34 26H20C17.8 26 16 24.2 16 22S17.8 18 20 18H34C35.1 18 36 17.1 36 16S35.1 14 34 14H20C17.8 14 16 12.2 16 10S17.8 6 20 6H34C35.1 6 36 5.1 36 4V2H38V4C38 6.2 36.2 8 34 8H20C18.9 8 18 8.9 18 10S18.9 12 20 12H34C36.2 12 38 13.8 38 16S36.2 20 34 20H20C18.9 20 18 20.9 18 22S18.9 24 20 24H34C36.2 24 38 25.8 38 28z" fill="#000000" data-fill-palette-color="accent"></path></g></svg></g></svg></g></svg></g><defs></defs></svg><rect width="395.52" height="191.53963670828367" fill="none" stroke="none" visibility="hidden"></rect></g></svg></g></svg>